<?xml version="1.0" encoding="UTF-8" standalone="no"?>
<!-- Created with Inkscape (http://www.inkscape.org/) -->

<svg
   width="161.464mm"
   height="13.396mm"
   viewBox="0 0 161.464 13.396"
   version="1.1"
   id="svg1"
   sodipodi:docname="granjacob-com-logo.svg"
   inkscape:version="1.3.1 (9b9bdc1480, 2023-11-25, custom)"
   xmlns:inkscape="http://www.inkscape.org/namespaces/inkscape"
   xmlns:sodipodi="http://sodipodi.sourceforge.net/DTD/sodipodi-0.dtd"
   xmlns="http://www.w3.org/2000/svg"
   xmlns:svg="http://www.w3.org/2000/svg">
  <sodipodi:namedview
     id="namedview1"
     pagecolor="#ffffff"
     bordercolor="#000000"
     borderopacity="0.25"
     inkscape:showpageshadow="2"
     inkscape:pageopacity="0.0"
     inkscape:pagecheckerboard="0"
     inkscape:deskcolor="#d1d1d1"
     inkscape:document-units="mm"
     inkscape:zoom="1.0405163"
     inkscape:cx="265.73346"
     inkscape:cy="122.05479"
     inkscape:window-width="2494"
     inkscape:window-height="1371"
     inkscape:window-x="0"
     inkscape:window-y="0"
     inkscape:window-maximized="1"
     inkscape:current-layer="layer1" />
  <defs
     id="defs1" />
  <g
     inkscape:label="Layer 1"
     inkscape:groupmode="layer"
     id="layer1"
     transform="translate(-34.718968,-116.29218)">
    <path
       d="m 45.815211,128.04202 q -3.246971,0 -5.254966,-0.5554 -2.007995,-0.5554 -2.947908,-1.70893 -0.925671,-1.15353 -0.925671,-2.97639 0,-1.79438 0.91143,-2.91943 0.925671,-1.13928 2.919426,-1.68045 2.007995,-0.5554 5.297689,-0.5554 1.68045,0 3.090319,0.14241 1.42411,0.14241 2.805496,0.45572 v 3.1188 q -1.395627,-0.34179 -2.59188,-0.49844 -1.182011,-0.15665 -2.777014,-0.15665 -1.965272,0 -3.090319,0.19937 -1.110806,0.19938 -1.623486,0.68358 -0.512679,0.48419 -0.512679,1.3529 0,0.7263 0.455715,1.16777 0.469956,0.42723 1.495315,0.62661 1.02536,0.18513 2.777015,0.18513 1.0396,0 1.908307,-0.0427 v -2.52068 h 4.144161 v 5.02711 q -2.620363,0.65509 -6.08095,0.65509 z m 7.547763,-10.18238 h 10.908683 q 4.414741,0 4.414741,3.58875 0,2.23586 -1.55228,3.11881 l 2.007995,3.26121 h -4.856215 l -1.495315,-2.72005 h -5.155279 v 2.72005 h -4.27233 z m 9.769395,4.65684 q 0.555403,0 0.868707,-0.2421 0.327545,-0.25634 0.327545,-0.7975 0,-0.44148 -0.327545,-0.65509 -0.327545,-0.21362 -0.868707,-0.21362 h -5.497065 v 1.90831 z m 12.318544,-4.65684 h 5.924298 l 6.166396,9.96877 h -4.984385 l -0.811743,-1.40987 h -6.650593 l -0.811743,1.40987 h -4.984385 z m 4.78501,5.92429 -1.780138,-3.09031 h -0.07121 l -1.780138,3.09031 z m 8.188611,-5.92429 h 4.172642 l 7.889574,5.63947 v -5.63947 h 4.17264 v 9.96877 h -4.18689 l -7.875324,-5.76765 v 5.76765 h -4.172642 z m 31.017066,10.18238 q -2.69157,0 -5.46858,-0.48419 v -3.01912 q 1.50955,0.22786 2.56339,0.34179 1.06809,0.0997 2.29282,0.0997 1.15353,0 1.72317,-0.12817 0.56965,-0.12817 0.79751,-0.44148 0.22785,-0.32754 0.22785,-0.98263 v -2.74854 h -6.75028 v -2.81973 h 11.02261 v 5.93854 q 0,1.63772 -0.58388,2.54915 -0.58389,0.89719 -1.96527,1.29594 -1.36715,0.39875 -3.85934,0.39875 z m 12.87392,-10.18238 h 5.9243 l 6.1664,9.96877 h -4.98439 l -0.81174,-1.40987 h -6.6506 l -0.81174,1.40987 h -4.98438 z m 4.78501,5.92429 -1.78014,-3.09031 h -0.0712 l -1.78014,3.09031 z m 16.02119,4.25809 q -3.16152,0 -5.1268,-0.54116 -1.96527,-0.5554 -2.90518,-1.70893 -0.92567,-1.15353 -0.92567,-2.99063 0,-1.80862 0.91143,-2.93367 0.92567,-1.13929 2.86246,-1.68045 1.95103,-0.54116 5.09831,-0.54116 1.56652,0 2.97639,0.15665 1.42411,0.15665 3.09032,0.49844 v 3.06184 q -1.58076,-0.31331 -2.86246,-0.44148 -1.26746,-0.14241 -2.72005,-0.14241 -1.86558,0 -2.93367,0.19938 -1.05384,0.19937 -1.52379,0.64085 -0.46996,0.42723 -0.46996,1.18201 0,0.81174 0.45571,1.26746 0.45572,0.45571 1.50956,0.65509 1.05384,0.18513 2.94791,0.18513 1.50956,0 2.74853,-0.14241 1.25322,-0.14241 2.90519,-0.49844 v 3.10456 q -1.58077,0.35603 -3.00488,0.51268 -1.40987,0.15665 -3.03335,0.15665 z m 15.50853,0 q -4.84198,0 -6.83573,-1.39562 -1.99376,-1.40987 -1.99376,-3.80238 0,-2.3925 1.99376,-3.78813 1.99375,-1.40987 6.83573,-1.40987 4.85621,0 6.84996,1.40987 1.99376,1.39563 1.99376,3.78813 0,2.39251 -1.99376,3.80238 -1.99375,1.39562 -6.84996,1.39562 z m -4.4005,-5.198 q 0,0.74054 0.37026,1.23898 0.37027,0.4842 1.32443,0.75478 0.96839,0.25634 2.70581,0.25634 1.75165,0 2.7058,-0.25634 0.9684,-0.27058 1.33867,-0.75478 0.37027,-0.49844 0.37027,-1.23898 0,-0.75478 -0.37027,-1.23897 -0.35603,-0.4842 -1.32442,-0.74054 -0.9684,-0.27058 -2.72005,-0.27058 -1.73742,0 -2.70581,0.27058 -0.95416,0.25634 -1.32443,0.74054 -0.37026,0.48419 -0.37026,1.23897 z m 14.49743,-4.98438 h 11.49257 q 3.56027,0 3.56027,2.52067 0,0.76902 -0.35602,1.32442 -0.35603,0.55541 -1.05385,0.82599 0.84023,0.27058 1.31019,0.88295 0.46995,0.61236 0.46995,1.55228 0,2.86246 -4.04447,2.86246 h -11.37864 z m 9.98301,7.46233 q 1.0396,0 1.0396,-0.71205 0,-0.71206 -1.0396,-0.71206 h -5.71068 v 1.42411 z m -0.12817,-3.71692 q 0.89719,0 0.89719,-0.62661 0,-0.62661 -0.89719,-0.62661 h -5.58251 v 1.25322 z"
       id="text1"
       style="font-stretch:ultra-expanded;font-size:14.2411px;font-family:'Muller Next Expanded Trial';-inkscape-font-specification:'Muller Next Expanded Trial,  weight=760 Ultra-Expanded';fill:#0000ff;stroke-width:0.193116"
       aria-label="GRAN JACOB" />
  </g>
</svg>
