<?xml version="1.0" encoding="UTF-8" standalone="no"?>
<!-- Created with Inkscape (http://www.inkscape.org/) -->

<svg
   width="175.689mm"
   height="14.513mm"
   viewBox="0 0 175.68899 14.513"
   version="1.1"
   id="svg1"
   inkscape:version="1.3.1 (9b9bdc1480, 2023-11-25, custom)"
   sodipodi:docname="neptuneql-com-logo.svg"
   xml:space="preserve"
   xmlns:inkscape="http://www.inkscape.org/namespaces/inkscape"
   xmlns:sodipodi="http://sodipodi.sourceforge.net/DTD/sodipodi-0.dtd"
   xmlns="http://www.w3.org/2000/svg"
   xmlns:svg="http://www.w3.org/2000/svg"><sodipodi:namedview
     id="namedview1"
     pagecolor="#ffffff"
     bordercolor="#000000"
     borderopacity="0.25"
     inkscape:showpageshadow="2"
     inkscape:pageopacity="0.0"
     inkscape:pagecheckerboard="0"
     inkscape:deskcolor="#d1d1d1"
     inkscape:document-units="mm"
     inkscape:zoom="1.0405163"
     inkscape:cx="319.5529"
     inkscape:cy="199.90076"
     inkscape:window-width="2494"
     inkscape:window-height="1371"
     inkscape:window-x="0"
     inkscape:window-y="0"
     inkscape:window-maximized="1"
     inkscape:current-layer="layer1" /><defs
     id="defs1" /><g
     inkscape:label="Layer 1"
     inkscape:groupmode="layer"
     id="layer1"
     transform="translate(-20.518963,-95.704223)"><path
       d="m 21.048131,96.48644 h 4.94291 l 9.34598,6.68052 v -6.68052 h 4.942911 v 11.809 h -4.959781 l -9.32911,-6.83235 v 6.83235 h -4.94291 z m 21.256172,0 h 16.718171 v 3.2053 H 47.365303 v 1.1809 h 11.117331 v 2.98599 H 47.365303 v 1.23151 h 11.758391 v 3.2053 H 42.304303 Z m 18.62445,0 h 12.854941 q 5.34779,0 5.34779,4.41994 0,4.40307 -5.33092,4.40307 h -7.81081 v 2.98599 h -5.061001 z m 11.572821,5.60084 q 0.69167,0 1.06281,-0.28679 0.38801,-0.30366 0.38801,-0.89411 0,-0.59045 -0.38801,-0.87724 -0.37114,-0.28679 -1.06281,-0.28679 h -6.51182 v 2.34493 z m 13.124843,-1.97379 h -6.258771 v -3.62705 h 17.376101 v 3.62705 h -6.25877 v 8.18195 h -4.85856 z m 21.526123,8.435 q -3.50896,0 -5.46588,-0.62419 -1.956923,-0.62419 -2.817293,-2.07501 -0.8435,-1.46769 -0.8435,-4.09941 v -5.26344 h 5.061003 v 5.02726 q 0,1.56891 0.32053,2.32806 0.32053,0.75915 1.16403,1.04594 0.8435,0.28679 2.58111,0.28679 1.73761,0 2.58111,-0.28679 0.8435,-0.28679 1.16403,-1.04594 0.3374,-0.77602 0.3374,-2.32806 v -5.02726 h 5.061 v 5.26344 q 0,2.63172 -0.86037,4.09941 -0.8435,1.45082 -2.80042,2.07501 -1.95692,0.62419 -5.48275,0.62419 z m 11.15104,-12.06205 h 4.94291 l 9.34598,6.68052 v -6.68052 h 4.94291 v 11.809 h -4.95978 l -9.32911,-6.83235 v 6.83235 h -4.94291 z m 21.25617,0 h 16.71817 v 3.2053 h -11.65717 v 1.1809 h 11.11733 v 2.98599 h -11.11733 v 1.23151 h 11.75839 v 3.2053 h -16.81939 z m 33.75683,11.50534 q -2.22684,0.55671 -5.3984,0.55671 -5.7358,0 -8.0976,-1.65326 -2.3618,-1.67013 -2.3618,-4.50429 0,-2.83416 2.3618,-4.48742 2.3618,-1.67013 8.0976,-1.67013 5.75267,0 8.11447,1.67013 2.3618,1.65326 2.3618,4.48742 0,2.61485 -1.82196,4.09941 l 1.06281,1.11342 -2.64859,2.14249 z m -10.61123,-5.60084 q 0,0.87724 0.43862,1.46769 0.43862,0.57358 1.56891,0.89411 1.14716,0.30366 3.2053,0.30366 2.07501,0 3.2053,-0.30366 1.14716,-0.32053 1.58578,-0.89411 0.43862,-0.59045 0.43862,-1.46769 0,-0.89411 -0.43862,-1.46769 -0.42175,-0.57358 -1.56891,-0.87724 -1.14716,-0.32053 -3.22217,-0.32053 -2.05814,0 -3.2053,0.32053 -1.13029,0.30366 -1.56891,0.87724 -0.43862,0.57358 -0.43862,1.46769 z m 17.17365,-5.9045 h 5.061 v 8.28317 h 10.7968 v 3.52583 H 179.879 Z"
       id="text3"
       style="font-size:16.87px;font-family:'Muller Next Expanded Trial';-inkscape-font-specification:'Muller Next Expanded Trial, Normal';fill:#4a90e2;stroke-width:0.56969"
       aria-label="NEPTUNEQL" /></g></svg>
