<?xml version="1.0" encoding="UTF-8" standalone="no"?>
<!-- Created with Inkscape (http://www.inkscape.org/) -->

<svg
   version="1.1"
   id="svg2"
   width="2829.3333"
   height="2829.3333"
   viewBox="0 0 2829.3333 2829.3333"
   sodipodi:docname="pinion.eps"
   xmlns:inkscape="http://www.inkscape.org/namespaces/inkscape"
   xmlns:sodipodi="http://sodipodi.sourceforge.net/DTD/sodipodi-0.dtd"
   xmlns="http://www.w3.org/2000/svg"
   xmlns:svg="http://www.w3.org/2000/svg">
  <defs
     id="defs6" />
  <sodipodi:namedview
     id="namedview4"
     pagecolor="#ffffff"
     bordercolor="#000000"
     borderopacity="0.25"
     inkscape:showpageshadow="2"
     inkscape:pageopacity="0.0"
     inkscape:pagecheckerboard="0"
     inkscape:deskcolor="#d1d1d1" />
  <g
     id="g8"
     inkscape:groupmode="layer"
     inkscape:label="ink_ext_XXXXXX"
     transform="matrix(1.3333333,0,0,-1.3333333,0,2829.3333)">
    <g
       id="g10"
       transform="scale(0.1)">
      <path
         d="m 10606.5,6100.1 c -2492.69,0 -4513.3,2020.5 -4513.3,4513.3 0,2492.7 2020.61,4513.4 4513.3,4513.4 2492.9,0 4513.5,-2020.7 4513.5,-4513.4 0,-2492.8 -2020.6,-4513.3 -4513.5,-4513.3 z m 8234.1,3597.5 c 33.1,300.8 51.5,606.1 51.5,915.8 0,309.6 -18.4,614.8 -51.5,915.7 -764.3,260.3 -1542.8,514.8 -1633.4,853.8 -93.7,350.6 450,965.4 981,1572.8 -244.7,554 -547.4,1076.4 -902.1,1558.8 -792.2,-157 -1595.8,-323.3 -1848.7,-70.5 -252.8,252.9 -86.3,1056.5 70.6,1848.8 -482.3,354.5 -1004.8,657.3 -1558.7,902 -607.4,-530.9 -1222.5,-1074.6 -1572.9,-980.9 -339,90.6 -593.7,869.2 -854.2,1633.7 -300.6,33 -605.8,51.4 -915.5,51.4 -309.6,0 -614.77,-18.4 -915.77,-51.5 -260.68,-764.5 -515.08,-1543 -854.1,-1633.6 -350.69,-93.7 -965.25,450 -1572.63,980.8 -554.15,-244.6 -1076.43,-547.4 -1558.74,-902 156.97,-792.2 323.35,-1595.9 70.4,-1848.8 -252.94,-252.8 -1056.31,-86.4 -1848.49,70.6 -354.66,-482.3 -657.36,-1004.6 -902.11,-1558.7 531.01,-607.3 1074.48,-1222 980.96,-1572.6 -90.79,-339 -869.02,-593.6 -1633.6,-854.1 -33.11,-300.9 -51.49,-606.1 -51.49,-915.7 0,-309.7 18.38,-614.9 51.49,-915.8 764.33,-260.4 1542.81,-514.7 1633.39,-853.8 93.73,-350.6 -450.01,-965.4 -980.75,-1572.7 244.75,-554.1 547.45,-1076.5 902.11,-1558.9 792.18,157 1595.82,323.5 1848.7,70.7 252.74,-252.9 86.36,-1056.5 -70.61,-1848.8 482.31,-354.6 1004.59,-657.4 1558.74,-902 607.38,530.8 1222.21,1074.5 1572.9,980.7 338.97,-90.6 593.41,-869.2 854.12,-1633.6 300.71,-33 605.88,-51.4 915.48,-51.4 309.7,0 614.9,18.4 915.5,51.4 260.7,764.4 515.2,1543 854.2,1633.6 350.4,93.8 965.3,-450 1572.9,-980.8 553.9,244.6 1076.2,547.3 1558.4,901.8 -156.9,792.4 -323.3,1596.1 -70.3,1848.9 252.6,252.9 1056.3,86.4 1848.7,-70.6 354.4,482.3 657.1,1004.8 901.9,1558.8 -530.8,607.4 -1074.5,1222.2 -980.8,1572.7 90.6,339.1 869.1,593.6 1633.4,854"
         style="fill:#425c98;fill-opacity:1;fill-rule:nonzero;stroke:none"
         id="path12" />
      <path
         d="m 13476.4,7129.7 c -780,-643.3 -1779.8,-1029.6 -2869.9,-1029.6 -2492.69,0 -4513.3,2020.5 -4513.3,4513.3 0,2492.7 2020.61,4513.4 4513.3,4513.4 1090.1,0 2089.9,-386.4 2869.9,-1029.7 v 3690.6 c -437.7,-364.2 -841.1,-643 -1100,-573.8 -339,90.6 -593.7,869.2 -854.2,1633.7 -300.6,33 -605.8,51.4 -915.5,51.4 -309.6,0 -614.77,-18.4 -915.77,-51.5 -260.68,-764.5 -515.08,-1543 -854.1,-1633.6 -350.69,-93.7 -965.25,450 -1572.63,980.8 -554.15,-244.6 -1076.43,-547.4 -1558.74,-902 156.97,-792.2 323.35,-1595.9 70.4,-1848.8 -252.94,-252.8 -1056.31,-86.4 -1848.49,70.6 -354.66,-482.3 -657.36,-1004.6 -902.11,-1558.7 531.01,-607.3 1074.48,-1222 980.96,-1572.6 -90.79,-339 -869.02,-593.6 -1633.6,-854.1 -33.11,-300.9 -51.49,-606.1 -51.49,-915.7 0,-309.7 18.38,-614.9 51.49,-915.8 764.33,-260.4 1542.81,-514.7 1633.39,-853.8 93.73,-350.6 -450.01,-965.4 -980.75,-1572.7 244.75,-554.1 547.45,-1076.5 902.11,-1558.9 792.18,157 1595.82,323.5 1848.7,70.7 252.74,-252.9 86.36,-1056.5 -70.61,-1848.8 482.31,-354.6 1004.59,-657.4 1558.74,-902 607.38,530.8 1222.21,1074.5 1572.9,980.7 338.97,-90.6 593.41,-869.2 854.12,-1633.6 300.71,-33 605.88,-51.4 915.48,-51.4 309.7,0 614.9,18.4 915.5,51.4 260.7,764.4 515.2,1543 854.2,1633.6 258.9,69.3 662.1,-209.6 1100,-573.8 v 3690.7"
         style="fill:#394e81;fill-opacity:1;fill-rule:nonzero;stroke:none"
         id="path14" />
      <path
         d="m 7448.78,7389.8 c -836,819.2 -1355.58,1960.5 -1355.58,3223.6 0,1263 519.58,2404.3 1355.58,3223.5 v 4196.8 c -61.46,53.4 -122.92,107.2 -184.58,161 -554.15,-244.6 -1076.43,-547.4 -1558.74,-902 156.97,-792.2 323.35,-1595.9 70.4,-1848.8 -252.94,-252.8 -1056.31,-86.4 -1848.49,70.6 -354.66,-482.3 -657.36,-1004.6 -902.11,-1558.7 531.01,-607.3 1074.48,-1222 980.96,-1572.6 -90.79,-339 -869.02,-593.6 -1633.6,-854.1 -33.11,-300.9 -51.49,-606.1 -51.49,-915.7 0,-309.7 18.38,-614.9 51.49,-915.8 764.33,-260.4 1542.81,-514.7 1633.39,-853.8 93.73,-350.6 -450.01,-965.4 -980.75,-1572.7 244.75,-554.1 547.45,-1076.5 902.11,-1558.9 792.18,157 1595.82,323.5 1848.7,70.7 252.74,-252.9 86.36,-1056.5 -70.61,-1848.8 482.31,-354.6 1004.59,-657.4 1558.74,-902 61.66,53.8 123.12,107.6 184.58,161 v 4196.7"
         style="fill:#2c3d65;fill-opacity:1;fill-rule:nonzero;stroke:none"
         id="path16" />
      <path
         d="m 10606.5,7364.8 c -1794.03,0 -3248.54,1454.4 -3248.54,3248.6 0,1794.2 1454.51,3248.7 3248.54,3248.7 1794.5,0 3248.8,-1454.5 3248.8,-3248.7 0,-1794.2 -1454.3,-3248.6 -3248.8,-3248.6 z m 0,7762 c -2492.69,0 -4513.3,-2020.7 -4513.3,-4513.4 0,-2492.8 2020.61,-4513.3 4513.3,-4513.3 2492.9,0 4513.5,2020.5 4513.5,4513.3 0,2492.7 -2020.6,4513.4 -4513.5,4513.4"
         style="fill:#3d77a9;fill-opacity:1;fill-rule:nonzero;stroke:none"
         id="path18" />
    </g>
  </g>
</svg>
